<?xml version="1.0" encoding="UTF-8"?>
<svg xmlns="http://www.w3.org/2000/svg" xmlns:xlink="http://www.w3.org/1999/xlink" width="369pt" height="172pt" viewBox="0 0 369 172" version="1.1">
<g id="surface1">
<path style="fill:none;stroke-width:0.79701;stroke-linecap:butt;stroke-linejoin:miter;stroke:rgb(0%,0%,0%);stroke-opacity:1;stroke-miterlimit:10;" d="M -28.34625 0.00053125 L 141.735781 0.00053125 " transform="matrix(1,0,0,-1,28.44,142.731)"/>
<path style="fill:none;stroke-width:0.79701;stroke-linecap:butt;stroke-linejoin:miter;stroke:rgb(0%,0%,0%);stroke-opacity:1;stroke-miterlimit:10;" d="M 0.00140625 -28.347125 L 0.00140625 141.734906 " transform="matrix(1,0,0,-1,28.44,142.731)"/>
<path style="fill-rule:nonzero;fill:rgb(89.99939%,89.99939%,89.99939%);fill-opacity:1;stroke-width:0.3985;stroke-linecap:butt;stroke-linejoin:miter;stroke:rgb(9.999084%,9.999084%,9.999084%);stroke-opacity:1;stroke-miterlimit:10;" d="M 28.345156 28.348187 L 28.345156 113.38725 L 113.388125 113.38725 L 113.388125 28.348187 L 28.345156 28.348187 " transform="matrix(1,0,0,-1,28.44,142.731)"/>
<path style="fill:none;stroke-width:0.79701;stroke-linecap:butt;stroke-linejoin:miter;stroke:rgb(0%,0%,0%);stroke-opacity:1;stroke-miterlimit:10;" d="M 198.427188 0.00053125 L 340.161563 0.00053125 " transform="matrix(1,0,0,-1,28.44,142.731)"/>
<path style="fill:none;stroke-width:0.79701;stroke-linecap:butt;stroke-linejoin:miter;stroke:rgb(0%,0%,0%);stroke-opacity:1;stroke-miterlimit:10;" d="M 226.774844 -28.347125 L 226.774844 141.734906 " transform="matrix(1,0,0,-1,28.44,142.731)"/>
<path style="fill-rule:nonzero;fill:rgb(89.99939%,89.99939%,89.99939%);fill-opacity:1;stroke-width:0.3985;stroke-linecap:butt;stroke-linejoin:miter;stroke:rgb(9.999084%,9.999084%,9.999084%);stroke-opacity:1;stroke-miterlimit:10;" d="M 226.774844 28.348187 L 141.735781 113.38725 L 226.774844 113.38725 L 311.813906 28.348187 L 226.774844 28.348187 " transform="matrix(1,0,0,-1,28.44,142.731)"/>
</g>
</svg>
